<svg width="52" height="51" viewBox="0 0 52 51" fill="none" xmlns="http://www.w3.org/2000/svg">
<path d="M31.9827 7.2417C34.9247 8.03296 37.6071 9.58336 39.7614 11.7376C41.9156 13.8918 43.466 16.5743 44.2573 19.5163" stroke="#2C742F" stroke-width="2" stroke-linecap="round" stroke-linejoin="round"/>
<path d="M30.1867 13.9497C31.9515 14.4245 33.5606 15.3546 34.8529 16.6469C36.1452 17.9392 37.0753 19.5483 37.5501 21.3131" stroke="#2C742F" stroke-width="2" stroke-linecap="round" stroke-linejoin="round"/>
<path d="M17.4625 25.6411C19.2621 29.3215 22.2449 32.2915 25.933 34.0752C26.2031 34.2032 26.5018 34.2584 26.7998 34.2356C27.0977 34.2128 27.3846 34.1126 27.632 33.9451L33.0639 30.325C33.3038 30.1648 33.5799 30.0669 33.8671 30.0403C34.1544 30.0136 34.4437 30.059 34.709 30.1723L44.8699 34.5282C45.215 34.6748 45.5032 34.9296 45.691 35.2541C45.8788 35.5787 45.9561 35.9555 45.9112 36.3278C45.5895 38.8406 44.3631 41.1501 42.4616 42.8239C40.56 44.4978 38.1135 45.4212 35.5802 45.4214C27.7558 45.4214 20.2518 42.3131 14.7191 36.7804C9.18637 31.2477 6.07813 23.7437 6.07812 15.9193C6.07836 13.3862 7.00185 10.94 8.67571 9.03865C10.3496 7.13735 12.659 5.91132 15.1717 5.59009C15.544 5.54519 15.9208 5.62245 16.2454 5.81025C16.5699 5.99804 16.8247 6.2862 16.9713 6.63134L21.3307 16.8009C21.4428 17.0636 21.4883 17.35 21.4632 17.6346C21.4381 17.9192 21.3431 18.1931 21.1867 18.4322L17.577 23.9473C17.4132 24.1957 17.3165 24.4823 17.2964 24.7791C17.2764 25.076 17.3336 25.3729 17.4625 25.6411V25.6411Z" stroke="#2C742F" stroke-width="2" stroke-linecap="round" stroke-linejoin="round"/>
</svg>
