<svg width="52" height="51" viewBox="0 0 52 51" fill="none" xmlns="http://www.w3.org/2000/svg">
<g clip-path="url(#clip0_1_17106)">
<path d="M48.95 5.94971H3.05C1.64172 5.94971 0.5 7.09133 0.5 8.49971V42.4997C0.5 43.908 1.64162 45.0497 3.05 45.0497H48.95C50.3583 45.0497 51.5 43.9081 51.5 42.4997V8.49971C51.5 7.09143 50.3584 5.94971 48.95 5.94971ZM49.8 42.4998C49.8 42.9692 49.4195 43.3497 48.95 43.3497H3.05C2.58054 43.3497 2.20003 42.9692 2.20003 42.4998V8.49971C2.20003 8.03025 2.58054 7.64974 3.05 7.64974H48.95C49.4195 7.64974 49.8 8.03025 49.8 8.49971V42.4998Z" fill="#2C742F"/>
<path d="M47.324 9.35289C47.0994 9.33327 46.8762 9.40369 46.7036 9.54872L27.094 26.0216C26.4616 26.5533 25.5385 26.5533 24.9061 26.0216L5.29666 9.54862C5.06407 9.35339 4.74492 9.29701 4.45954 9.4008C4.17416 9.5046 3.96578 9.75282 3.91299 10.052C3.86019 10.3511 3.97096 10.6556 4.20355 10.8508L23.813 27.3229C25.0769 28.3871 26.9233 28.3871 28.1872 27.3229L47.7966 10.8509C47.9693 10.706 48.0773 10.4984 48.0969 10.2738C48.1165 10.0492 48.0461 9.82594 47.9011 9.65331C47.7563 9.48049 47.5487 9.37251 47.324 9.35289Z" fill="#2C742F"/>
<path d="M16.8483 27.206C16.5474 27.1388 16.2339 27.2398 16.0287 27.4699L4.12863 40.2199C3.91327 40.4405 3.83418 40.7604 3.92204 41.0559C4.00989 41.3514 4.25085 41.5761 4.55167 41.6433C4.85259 41.7104 5.16616 41.6094 5.37135 41.3793L17.2714 28.6293C17.4867 28.4088 17.5658 28.0888 17.478 27.7934C17.3901 27.4979 17.1493 27.2731 16.8483 27.206Z" fill="#2C742F"/>
<path d="M35.9714 27.4699C35.7663 27.2398 35.4526 27.1388 35.1517 27.206C34.8508 27.2731 34.6099 27.4979 34.522 27.7934C34.4342 28.0889 34.5133 28.4088 34.7286 28.6293L46.6287 41.3793C46.9514 41.7098 47.4789 41.7221 47.8167 41.407C48.1545 41.0918 48.1788 40.5647 47.8714 40.2198L35.9714 27.4699Z" fill="#2C742F"/>
</g>
<defs>
<clipPath id="clip0_1_17106">
<rect width="51" height="51" fill="white" transform="translate(0.5)"/>
</clipPath>
</defs>
</svg>
