<svg width="122" height="96" viewBox="0 0 122 96" fill="none" xmlns="http://www.w3.org/2000/svg">
<path d="M70.4563 9.71948C72.0456 7.12099 73.7568 4.59555 75.6042 2.17141C77.6542 -0.525057 80.1028 -2.91619 82.0308 -5.68572C85.2611 -10.3243 88.943 -14.5036 93.0289 -18.4087C95.3241 -20.6055 97.6845 -21.3261 100.851 -21.033C105.174 -20.637 109.781 -15.7646 107.806 -10.421C107.017 -8.29379 105.873 -6.58941 104.087 -5.32659C102.476 -4.18042 100.738 -3.21759 99.0791 -2.12498C97.9831 -1.39802 96.7425 -0.760989 95.9048 0.21103C92.2558 4.47648 88.6197 8.76025 85.2104 13.2128C82.8621 16.2867 80.8685 19.6419 78.7585 22.893C77.8855 24.2442 77.1147 25.6714 76.4277 26.8436C78.3925 28.3845 80.0438 29.7187 81.7558 30.9834C82.4011 31.4546 83.1468 31.9212 83.9182 32.0808C86.6414 32.6613 88.5596 34.2292 89.7626 36.64C91.1966 39.5223 92.4682 42.4688 93.8076 45.3952C94.3582 46.598 94.7226 47.909 95.4382 48.9965C96.3673 50.4368 97.7621 51.6066 98.5768 53.094C99.3901 54.5715 99.7463 56.3082 100.319 58.003C104.481 58.1296 106.109 60.953 104.424 64.4146C103.414 66.4833 101.908 67.9982 100.008 69.3081C97.8513 70.7972 95.6683 72.3812 93.8854 74.2804C90.042 78.3925 85.6359 81.4249 80.0566 82.4565C73.7791 83.6209 67.7326 85.6005 61.8288 87.933C56.5648 90.0099 51.4332 89.8235 46.4045 87.7219C40.8488 85.4045 35.4023 82.7982 30.0065 80.1238C28.197 79.2272 26.5061 77.8988 25.082 76.4604C21.8887 73.2301 18.8899 69.8095 15.8291 66.4486C14.8292 65.3522 13.8447 64.2233 12.9534 63.0403C10.0675 59.219 8.38094 55.0296 9.00377 50.117C9.10928 49.2525 8.92033 48.3099 8.73165 47.4381C7.34927 41.1219 8.54988 35.326 12.0856 29.9451C12.9853 28.5698 13.8239 27.1226 14.4403 25.607C15.3102 23.478 16.4922 21.6165 18.3368 20.2743C21.7439 17.803 25.242 15.47 28.6634 13.0269C33.7404 9.40078 39.2555 9.30848 44.9949 10.8813C47.7853 11.6439 50.5283 12.5651 53.3283 13.2556C56.117 13.9377 58.5742 15.1839 60.7734 17.0138C61.9709 18.0104 63.2275 18.9275 64.5722 19.9631C66.6005 16.4309 68.4341 13.0183 70.4563 9.71948ZM97.4319 55.415C97 54.5384 96.6213 53.5429 95.9498 52.8935C93.9823 50.9892 92.9631 48.5919 91.9452 46.1337C90.7829 43.3126 89.4781 40.5529 88.155 37.806C87.1797 35.7762 85.643 34.4655 83.3216 33.9372C82.1184 33.6591 80.9878 32.774 79.9805 31.9718C78.63 30.8966 77.4258 29.6483 75.5147 29.1608C75.0519 30.1385 74.6059 31.0934 74.1584 32.0384C75.9377 34.2433 77.9731 35.7839 80.5296 36.7427C82.2844 37.4047 83.9751 38.3188 85.5687 39.3279C87.1395 40.3202 87.9504 41.9194 88.4366 43.6471C88.2294 43.819 88.0207 43.981 87.8135 44.153C87.7161 43.8337 87.6949 43.4831 87.5242 43.2151C86.1451 40.9817 84.0723 39.669 81.6174 38.9884C78.4461 38.1099 75.5405 36.8386 73.1638 33.7309C71.9401 37.2359 68.8822 39.6761 70.2487 43.7508C72.514 44.0347 74.3188 45.1746 75.5344 47.1893C76.4283 48.6651 76.5333 49.1045 76.3114 51.3101C75.0425 50.8597 74.8565 49.5933 74.1688 48.7644C73.4796 47.9257 72.7622 47.1011 71.7837 46.4261C72.994 48.8864 74.2323 51.2617 73.7577 54.2928C72.3812 53.4539 72.7871 52.0197 72.2289 51.0404C71.5683 49.9145 70.9245 48.7658 70.199 47.6797C69.5247 46.6669 68.7474 45.7097 67.9171 44.5986C64.1059 48.5846 59.5615 51.3644 53.268 51.662C54.4994 50.1368 55.9828 50.4648 57.0596 49.8822C58.1279 49.3109 59.2576 48.8822 60.2739 48.0254C58.4966 48.1045 56.7192 48.1836 54.9418 48.2627C54.9043 48.0762 54.8782 47.8981 54.8407 47.7115C55.2402 47.5417 55.6113 47.3154 56.0295 47.2034C57.0721 46.9391 58.1279 46.7639 59.1676 46.4798C63.4736 45.3117 66.7055 42.8864 68.4567 38.6369C69.4331 36.2699 70.7212 34.029 71.6028 31.6355C74.4435 23.931 79.3962 17.4627 83.8686 10.7517C86.7846 6.38163 90.4946 2.53175 93.9963 -1.42906C95.0621 -2.63674 96.6033 -3.42909 97.9389 -4.38326C100.016 -5.86078 102.143 -7.27484 104.206 -8.78058C107.886 -11.4636 105.824 -17.2454 101.919 -18.4407C99.251 -19.2618 96.8276 -19.108 94.6073 -16.9526C91.0428 -13.4879 87.7138 -9.86578 84.9157 -5.72529C83.0723 -2.99852 80.9057 -0.476956 78.7446 2.01347C76.2977 4.82887 74.0705 7.76362 72.3128 11.0741C68.3216 18.5837 64.1674 26.0162 60.111 33.4949C59.3233 34.9448 58.6235 36.4423 57.9676 37.9638C56.8296 40.6072 54.995 42.706 52.9109 44.6191C52.6347 44.8719 52.2378 44.9909 51.7128 45.2701C51.3972 43.0524 53.2292 42.1062 53.8999 40.4108C48.3742 38.5034 44.295 41.6292 39.6299 44.6188C40.0494 43.7587 40.131 43.2818 40.4185 43.0374C44.1226 39.8353 48.1616 37.6755 53.2947 38.9734C54.1766 39.1977 54.1836 39.1765 55.3069 38.5668C53.8198 36.5616 51.3326 37.3816 49.478 36.522C50.7093 34.2388 51.5675 34.1634 56.3373 35.8785C58.0542 32.6346 59.7894 29.3779 61.4909 26.1667C59.4882 23.9542 57.2277 22.7397 54.3554 22.3833C52.6872 22.1734 51.1027 21.2943 49.5105 20.6387C48.8335 20.3642 48.2432 19.8545 47.5871 19.5163C44.7063 18.0695 41.9183 17.9432 39.2437 20.034C36.8878 21.886 34.2812 23.2694 31.4796 24.358C29.2414 25.2223 28.1625 26.341 27.1832 28.3445C31.5009 30.1463 35.2838 32.6432 37.7537 36.7984C34.0046 34.2561 30.9348 30.4215 25.649 30.561C25.1205 33.9133 23.4186 36.2959 21.1261 38.0981C23.4349 40.8114 25.6269 43.3499 27.7853 45.9337C30.654 49.3633 34.2365 51.5965 38.6518 52.3429C42.9935 53.0698 47.1523 54.4097 51.2357 55.9932C52.1578 56.3531 53.0897 56.7114 53.9332 57.2243C56.3926 58.6926 57.2619 61.4455 56.1663 64.1029C55.7419 65.1355 55.2522 66.1373 54.7838 67.146C54.9214 67.2572 55.0704 67.3768 55.208 67.488C56.0898 66.9542 57.0569 66.5191 57.852 65.8768C60.5094 63.738 63.3744 62.5996 66.8207 63.6298C68.4178 64.1129 69.7187 63.3356 70.4537 62.1462C72.8976 58.2094 76.6863 57.8551 80.6585 58.1309C83.1397 58.3022 85.5528 59.1102 87.567 60.6438C89.3883 62.0339 91.4839 62.3326 93.6285 62.4826C95.3741 62.6002 96.8783 62.1064 97.923 60.5481C98.2871 59.9993 98.776 59.5435 99.1407 59.1362C98.5334 57.8912 98.025 56.6317 97.4319 55.415ZM38.0596 13.4158C36.3092 12.4398 34.4786 12.2942 32.6373 13.3833C27.953 16.1735 23.1166 18.7536 19.1491 22.5706C18.0515 23.6313 17.2778 25.0387 16.45 26.3529C15.795 27.3992 15.4209 28.6367 14.6836 29.604C12.2171 32.8367 10.7734 36.4953 9.97412 40.413C9.6578 41.9756 9.79015 43.6339 9.70215 45.7188C10.4149 44.9976 10.8221 44.6043 11.263 44.1656C11.4236 44.3643 11.618 44.5177 11.5886 44.5928C10.9253 46.4084 10.9666 48.2722 10.8722 50.1761C10.6332 54.8808 12.4063 58.7644 15.3979 62.1355C19.1778 66.4015 23.0748 70.5696 27.0238 74.6794C28.1456 75.8488 29.5061 76.9225 30.9542 77.6296C36.435 80.332 41.8948 83.098 47.5395 85.4023C53.0015 87.6324 58.7648 87.7159 64.1899 85.2212C69.1322 82.949 74.3205 81.7322 79.5599 80.5888C84.603 79.4844 88.6404 76.9003 92.1827 73.2166C94.1645 71.1568 96.5038 69.3982 98.8349 67.7217C100.416 66.5799 101.808 65.395 102.636 63.5957C103.418 61.904 103.435 61.8813 101.922 60.1831C100.66 60.3281 99.914 61.2361 99.2219 62.1665C98.1077 63.6643 96.6313 64.4168 94.7905 64.5456C91.7593 64.7583 88.9362 64.3239 86.2932 62.5693C83.0122 60.3929 79.3543 59.505 75.4342 60.6163C74.3281 60.9304 73.1967 61.2785 72.5938 62.6102C73.8933 64.3701 74.4568 66.3492 73.1885 68.9309C72.5413 67.2773 72.0071 65.9105 71.4728 64.5436C69.9378 64.7589 69.6461 65.388 69.9889 66.6212C70.8583 69.7885 69.8431 72.7171 68.9905 75.6521C68.7868 75.6416 68.5831 75.6311 68.3794 75.6206C68.4057 75.1114 68.4236 74.6135 68.4498 74.1043C68.5132 72.9528 68.6063 71.797 68.6286 70.6415C68.7134 65.5755 66.1273 64.6211 61.4451 65.7736C60.6059 65.9777 59.839 66.6058 59.0957 67.1193C57.7404 68.0763 56.4345 69.0262 54.7045 69.2903C54.0713 69.3833 53.4246 70.0039 52.9883 70.543C52.217 71.485 51.5947 72.5467 50.5373 73.3994C50.9388 72.2792 51.3715 71.1645 51.7305 70.0303C52.1343 68.7884 52.4745 67.5256 52.8259 66.2712C53.0909 65.3227 53.2922 64.3531 53.5883 63.4101C54.249 61.3017 53.8238 59.9896 51.7632 59.241C48.1221 57.916 44.4165 56.7723 40.7125 55.6384C39.5373 55.2753 38.2811 55.1869 37.0765 54.8989C34.4775 54.2698 32.0351 54.6386 30.203 56.6158C28.5469 58.4155 27.1847 60.4955 25.7273 62.4783C25.4586 62.8513 25.3162 63.327 25.1256 63.7492C24.7261 59.2394 26.263 56.6284 31.3826 52.6725C28.4529 51.0308 26.2716 48.703 24.4622 46.0174C23.6741 44.8495 22.8776 43.693 22.1192 42.5208C20.7192 40.3512 18.8241 39.6288 16.3596 40.4658C15.378 40.802 14.3807 41.1 13.029 41.531C14.5438 38.7009 16.891 38.2349 19.1433 38.0861C20.0028 36.9188 20.8251 35.9794 21.4177 34.922C22.1312 33.6549 22.6576 32.2839 23.2378 30.9353C24.7851 27.3625 26.3252 23.7403 30.2887 22.1678C33.0775 21.0608 35.6443 19.6125 38.0657 17.8621C39.043 17.1526 40.198 16.6899 41.6051 15.9475C40.306 15.0164 39.2586 14.0786 38.0596 13.4158ZM59.031 18.0884C57.2452 16.7335 55.2518 15.8234 53.0407 15.289C50.0015 14.5528 46.9998 13.6594 43.9761 12.8906C42.8322 12.6038 41.6479 12.4543 40.1846 12.1941C41.1289 13.5311 41.7665 14.5695 42.5395 15.497C42.8691 15.8832 43.4656 16.1595 43.9722 16.2367C46.5462 16.6268 48.8227 17.6065 50.9978 19.0659C52.2541 19.9124 53.8277 20.5101 55.3277 20.7446C57.6328 21.0934 59.5834 21.9187 61.2429 23.5146C61.5254 23.7864 61.9121 23.9419 62.4224 24.251C62.9013 23.3822 63.3155 22.624 63.762 21.8105C62.1249 20.5045 60.5984 19.2631 59.031 18.0884Z" fill="#DAE6DA"/>
<path d="M81.5503 1.91486C82.4683 0.870396 83.4159 -0.178443 84.1425 -1.35651C85.5309 -3.60207 86.8641 -5.87995 88.0428 -8.24632C89.6902 -11.5507 92.7194 -13.0164 95.8195 -14.4116C96.2176 -14.5914 96.7298 -14.5453 97.3743 -14.6299C96.9392 -12.7062 95.7526 -11.6324 94.3694 -10.9341C92.2156 -9.83951 90.7033 -8.16197 89.3673 -6.24754C88.0903 -4.41253 86.7794 -2.60285 85.579 -0.728542C83.7784 2.08291 81.0773 3.9249 78.5581 5.97266C79.0718 4.23963 80.4422 3.17927 81.5503 1.91486Z" fill="#DAE6DA"/>
<path d="M90.2857 48.9447C91.5091 51.494 92.503 53.5817 93.5652 55.7908C90.9174 54.9668 89.5166 52.2414 90.2857 48.9447Z" fill="#DAE6DA"/>
</svg>
