<svg width="141" height="104" viewBox="0 0 141 104" fill="none" xmlns="http://www.w3.org/2000/svg">
<path d="M105.666 5.21006C104.462 6.98771 102.856 8.12639 100.628 8.26565C98.0477 8.42949 95.4672 8.75716 92.8868 8.81451C86.6937 8.94558 80.7627 10.1088 75.0202 12.5173C69.7446 14.7209 65.3128 17.9731 61.7902 22.4295C59.816 24.928 58.0629 27.6068 56.1296 30.3265C53.7703 29.7858 51.1899 29.1387 48.5849 28.6144C46.1601 28.1311 44.0056 27.1153 41.8511 25.9192C37.7797 23.6583 35.1829 19.7917 31.7095 16.8917C30.3824 15.7776 29.4895 15.4336 28.0231 16.3838C26.7124 17.2358 25.8277 18.4154 25.6147 19.9883C25.4591 21.1515 25.4754 22.3476 25.2543 23.4944C25.0249 24.7068 24.8938 26.0913 24.2139 27.0415C22.2232 29.8432 20.1671 32.6448 17.7996 35.127C15.3748 37.6747 12.4749 39.7636 9.92717 42.1966C3.18522 48.6518 0.309863 56.9339 0.0149535 65.9368C-0.230804 73.3751 2.56264 80.076 7.65802 85.6547C12.0489 90.4634 17.3245 94.1088 23.0506 97.1398C28.1132 99.8186 33.4872 101.285 39.2133 101.711C41.6135 101.891 44.1284 102.243 46.3157 103.161C50.3953 104.865 54.3602 103.472 58.3742 103.317C58.8002 103.3 59.2098 102.907 59.6194 102.678C60.2338 102.334 60.8154 101.899 61.4707 101.662C62.7978 101.178 63.7235 100.294 64.4444 99.1141C65.5176 97.3446 66.902 95.9274 68.7779 94.9362C70.0149 94.2808 71.1044 93.3388 72.194 92.4459C75.3151 89.9146 77.9693 86.9491 80.3204 83.6641C87.177 87.6536 94.6644 88.653 102.226 88.2024C112.105 87.6044 120.977 83.8853 128.743 77.7168C133.871 73.6454 137.361 68.4599 139.188 62.1357C140.171 58.7443 140.138 55.3119 140.105 51.8549C140.048 44.3756 137.975 37.4617 134.231 31.0146C132.085 27.3201 129.48 23.9859 126.326 21.1188C122.714 17.8256 120.87 13.9099 121.698 8.95377C121.812 8.25746 121.927 7.56114 122.066 6.87302C122.64 3.94851 121.223 1.84318 119.273 0H109.123C107.968 1.7285 106.838 3.48157 105.666 5.21006ZM29.1536 17.0556C29.809 16.7443 30.4725 16.7279 30.6445 17.5225C30.7019 17.801 30.1366 18.3745 29.7352 18.5465C28.8751 18.9233 27.933 19.1281 26.9336 19.4312C27.3514 18.268 28.1214 17.5471 29.1536 17.0556ZM62.593 98.7946C60.3648 100.171 58.3414 102.03 55.4251 101.809C54.737 101.76 53.9997 101.867 53.328 102.055C51.1735 102.661 49.0846 102.366 47.1349 101.441C44.3332 100.105 41.4169 99.4418 38.345 99.0485C32.9301 98.3604 27.7938 96.6893 23.1489 93.691C20.9043 92.2492 18.6024 90.8894 16.2841 89.5623C13.2449 87.8256 10.7382 85.4581 8.35432 82.9514C5.72472 80.1989 4.48774 76.7174 3.43098 73.1621C3.11969 72.1135 2.93946 71.0158 2.64455 69.9672C2.01378 67.739 1.76802 65.5108 2.34964 63.2335C3.15245 60.1205 3.75047 56.9502 4.72531 53.8947C5.9459 50.0854 8.41167 47.0053 11.0822 44.0889C11.3116 43.835 11.6147 43.6548 12.1062 43.6548C11.4427 44.5886 10.7955 45.5471 10.1074 46.4646C7.40406 50.0445 5.83121 54.1568 4.82361 58.4494C3.48013 64.1755 4.21741 69.746 7.19927 74.825C9.33736 78.4704 11.7785 81.952 14.2689 85.3762C16.3824 88.2844 19.2578 90.2914 22.6001 91.7168C24.8283 92.667 26.9336 93.9204 29.0717 95.0755C31.6603 96.4763 34.3555 97.3692 37.3619 97.3856C40.311 97.3938 43.1208 98.1065 45.5293 99.9578C46.6516 100.818 47.9295 101.08 49.3139 100.802C50.6328 100.539 51.8944 100.351 53.2379 100.875C53.8031 101.097 54.6141 100.818 55.2695 100.613C57.8417 99.835 60.3976 98.9994 63.0272 98.1638C62.8961 98.3604 62.806 98.6717 62.593 98.7946ZM73.6849 89.4804C72.2677 90.7255 70.8997 92.0608 69.335 93.0766C67.8359 94.0433 66.0828 94.5839 64.4854 95.4031C60.414 97.4921 60.4304 97.5085 59.6358 97.2299C59.0951 97.7378 58.5626 98.2539 57.596 99.1714C57.8827 97.7296 58.0547 96.8695 58.2267 96.0093C58.1121 95.9602 57.9974 95.9028 57.8827 95.8537C57.596 96.4107 57.3093 96.9678 57.0225 97.5248C56.1214 99.2697 54.9172 99.6957 52.9757 99.3271C51.8616 99.1141 50.6492 99.1632 49.5187 99.3271C46.971 99.7039 44.9313 98.8929 43.2273 97.0415C42.9652 97.0088 42.7031 96.9678 42.4409 96.935C37.665 96.7712 33.1267 95.8127 28.9324 93.3715C27.0401 92.2738 25.0413 91.3154 23.0179 90.4798C20.036 89.251 17.431 87.4897 15.5632 84.9093C12.909 81.2229 10.2549 77.5038 8.03484 73.5471C4.95468 68.0585 4.85637 62.1767 6.76509 56.2212C8.24783 51.6009 10.6399 47.505 13.5316 43.6302C15.6451 40.804 17.6931 37.9696 20.3473 35.5775C21.7153 34.3487 22.6574 32.653 24.132 31.1785C24.0582 31.8666 24.0828 32.5875 23.8944 33.251C23.1407 35.8888 22.3625 38.5266 21.5187 41.1316C17.7914 52.6495 17.8733 64.1346 21.8792 75.5623C24.0091 81.6407 28.3098 86.0725 33.184 90.0292C33.397 90.2013 33.7247 90.2177 34.0032 90.2996C33.9787 90.2832 33.9623 90.2586 33.9377 90.234C33.9541 90.2422 33.9787 90.2504 33.995 90.2668C33.3643 89.5131 32.8072 88.6776 32.0781 88.0386C24.5661 81.395 20.9699 72.7689 20.5111 63.0614C20.1671 55.8116 20.8142 48.4962 23.321 41.4675C24.6317 37.7975 25.4181 33.9228 26.2209 30.0971C26.696 27.8198 26.6633 25.4359 26.9991 23.1176C27.2777 21.2335 27.933 19.6115 30.3414 19.6197C30.8821 19.6197 31.4146 19.0872 32.2338 18.653C32.8728 19.3329 33.7247 19.9555 34.1917 20.7911C35.7235 23.5354 37.9108 25.5342 40.4503 27.3692C43.17 29.3435 45.5129 31.8174 48.0688 34.0211C49.3139 35.0942 50.6328 36.0854 51.9763 37.0275C54.5486 38.8297 57.17 40.5582 59.7586 42.3277C63.4122 44.8344 66.1074 48.2013 68.0816 52.0924C71.4567 58.7443 73.8078 65.691 73.431 73.3095C73.2098 77.897 72.4151 82.3452 70.531 86.5722C70.0968 87.5389 69.7036 88.5219 69.5398 89.5951C71.0553 87.2276 72.6363 84.8929 73.349 82.165C75.2332 74.9315 75.1758 67.6653 72.9968 60.5383C71.9728 57.1796 70.4737 53.9438 68.9172 50.7817C65.9927 44.859 60.971 40.9432 55.5152 37.5436C52.2467 35.5038 49.1665 33.2592 46.0126 30.1709C47.0366 30.4494 47.651 30.4821 48.1179 30.7525C53.0658 33.6197 58.4397 35.8397 62.8798 39.5015C66.263 42.2867 69.507 45.3013 72.4561 48.5371C78.1003 54.7466 79.5012 62.3733 78.9851 70.4833C78.682 75.2592 77.3467 79.7402 74.9383 83.8935C74.7171 84.2703 74.6024 84.7045 74.4467 85.1059C74.586 85.1796 74.7171 85.2615 74.8563 85.3353C75.6264 84.1065 76.5275 82.9432 77.1501 81.6489C79.1653 77.3973 79.9681 72.859 80.0746 68.1732C80.2958 58.4494 76.5029 50.5769 69.4579 43.9579C64.8212 39.5998 59.816 35.938 54.0734 33.251C53.1641 32.825 52.3122 32.268 51.1489 31.6126C60.2665 32.6776 70.3426 36.7899 77.0108 47.7507C85.0225 60.9151 83.9002 74.014 75.3151 86.7279C75.8639 86.2691 76.421 85.8022 76.9453 85.368C76.462 86.5723 75.397 87.9731 73.6849 89.4804ZM73.8651 41.959C75.5527 42.9666 76.7978 44.433 77.8382 46.014C83.2121 54.1568 85.3994 63.0123 83.4169 72.6787C83.1138 74.1697 82.9254 75.8326 81.5737 76.9222C81.754 76.0374 81.9096 75.1445 82.139 74.2762C84.9488 63.7495 82.5977 54.2633 76.3555 45.5635C75.5117 44.3838 74.5696 43.2697 73.8651 41.959ZM80.0828 79.9696C80.5333 79.0766 80.9757 78.1755 81.4263 77.2826C81.1805 78.2493 80.9266 79.2159 80.6808 80.1825C80.4842 80.1088 80.2876 80.0351 80.0828 79.9696ZM113.784 0.417788C114.898 0.729081 116.029 0.974839 117.168 1.17964C118.863 1.48274 119.183 2.91632 120.125 4.62844C118.314 4.00585 117.241 2.38385 116.013 3.80924C114.89 3.12112 114.014 2.58046 113.137 2.04798C112.998 2.20363 112.859 2.36747 112.719 2.52311C113.391 3.29315 114.006 4.12054 114.759 4.80047C115.128 5.13634 115.734 5.36571 116.242 5.38209C117.52 5.43944 118.814 5.34933 120.403 5.30837C120.281 6.24225 120.125 6.97952 120.109 7.71679C120.035 10.0515 119.74 12.4353 120.043 14.7291C120.494 18.1779 122.935 20.5781 125.343 22.8473C128.333 25.6735 130.938 28.7782 132.904 32.4072C137.508 40.9105 139.335 49.9789 137.729 59.4979C136.435 67.1656 132.257 73.2767 125.958 77.8888C118.88 83.0743 110.942 86.1954 102.226 86.7197C94.9839 87.1539 87.816 86.2036 80.8856 82.7794C84.3426 76.1112 86.8166 69.2299 85.7434 61.5951C84.6948 54.1896 81.8195 47.5869 76.9535 41.7215C77.5515 39.78 78.8458 38.2153 80.3531 36.8555C84.2689 33.3247 88.4959 30.2282 93.1325 27.6559C98.1624 24.8707 102.865 21.5939 106.502 17.0146C106.944 16.4658 107.354 15.8923 107.755 15.3025C107.87 15.1305 107.886 14.8847 108.107 14.0983C107.108 15.1632 106.485 15.8596 105.822 16.5149C105.093 17.2358 104.396 17.9895 103.577 18.5957C99.8499 21.3236 96.2373 24.2645 92.2887 26.6401C86.2431 30.2773 80.5989 34.2914 76.2736 39.9438C76.1343 40.124 75.9213 40.2387 75.7247 40.4026C73.4228 38.6249 71.1372 36.8718 68.6878 34.9795C69.1548 32.9315 71.4157 32.268 72.366 30.5231C70.5556 31.5471 68.8271 32.6448 67.6884 34.66C65.6322 33.7507 63.658 32.8742 61.5527 31.9403C63.273 28.1065 65.8043 25.1 69.4415 22.5606C68.0161 22.4377 67.3607 23.1749 66.7791 23.7566C64.5673 25.9848 62.4374 28.2867 60.3075 30.5886C59.8651 31.0638 59.5457 31.6372 58.792 31.1457C61.9623 21.8397 73.8078 12.2633 88.84 11.2967C84.9324 12.8695 80.9839 14.3441 77.6006 17.1211C78.1003 16.9655 78.6165 16.8508 79.0998 16.646C81.8441 15.4827 84.5474 14.1966 87.3326 13.1562C88.6188 12.6811 90.0687 12.4927 91.4532 12.4681C95.7785 12.3944 99.8253 11.2967 103.708 9.47806C105.388 8.69163 106.682 7.44646 107.608 5.83265C108.345 4.53833 109.066 3.22762 109.819 1.94149C110.745 0.393212 112.039 -0.0655354 113.784 0.417788Z" fill="#DAE6DA"/>
<path d="M45.7667 97.4185C45.8486 97.2219 45.9223 97.0253 45.996 96.8287C44.2839 96.6484 43.2599 95.518 42.0311 94.6332C39.5736 92.8638 36.69 91.6841 33.9867 90.2669C33.9703 90.2587 33.9457 90.2505 33.9293 90.2342C33.9539 90.2505 33.9703 90.2751 33.9948 90.2997C34.5765 90.8404 35.1007 91.4711 35.7643 91.8889C37.329 92.8801 38.9674 93.7649 40.573 94.6906C35.7152 93.4454 30.759 92.4869 26.786 89.1364C25.5326 88.0797 24.3284 86.9492 22.9849 86.0153C17.3161 82.0914 14.7274 76.3079 13.2693 69.9018C11.1148 60.4319 13.3348 51.7239 18.0943 43.4829C19.405 41.2137 20.4946 38.8135 21.6906 36.4788C21.1991 36.4951 20.9533 36.6508 20.8059 36.8802C20.2406 37.7321 19.7163 38.6005 19.1675 39.4606C18.5367 40.4518 17.9469 41.4758 17.2588 42.4179C13.515 47.5379 11.1967 53.1821 10.8117 59.5636C10.5168 64.5443 11.1394 69.3529 12.5894 74.178C14.4571 80.4039 18.1926 84.934 23.5256 88.35C25.3032 89.4887 27.1136 90.5946 28.9486 91.6432C30.2266 92.3722 31.5373 93.0931 32.9135 93.6092C36.0592 94.7889 39.2541 95.8374 42.4325 96.9352C42.6947 96.9679 42.9568 97.0089 43.2189 97.0417C44.0709 97.1645 44.9229 97.2956 45.7667 97.4185Z" fill="#DAE6DA"/>
<path d="M104.192 10.3629C101.931 11.1985 99.5713 11.7883 97.2611 12.501C96.2617 12.8041 95.2787 13.1481 94.2793 13.4676C94.3203 13.6315 94.3694 13.7871 94.4104 13.951C96.7778 13.5168 99.1453 13.058 101.521 12.6566C106.821 11.7555 109.049 7.90532 110.688 3.46529C110.532 3.37518 110.376 3.28507 110.229 3.18677C109.549 4.31725 108.804 5.40678 108.214 6.58642C107.321 8.36406 106.002 9.69935 104.192 10.3629Z" fill="#DAE6DA"/>
<path d="M66.5089 59.2521C62.6915 51.8138 56.7278 46.0385 51.2064 39.9274C49.7401 38.2972 48.1672 36.7325 46.4797 35.3399C42.3509 31.932 38.386 28.3849 35.0274 24.1907C34.7816 23.8876 34.4867 23.6172 34.1672 23.3961C33.004 22.5851 32.4715 22.8062 32.0537 24.2562C31.9718 24.5429 31.939 24.846 31.8981 25.0426C31.1854 25.3048 30.6037 25.5341 30.0139 25.7471C28.5967 26.255 28.0151 27.1971 27.9004 28.7536C27.4007 35.3235 26.6634 41.877 26.1965 48.447C25.6476 56.131 25.3281 63.8396 26.8928 71.4417C28.5066 79.2977 31.9226 86.097 39.0414 90.5125C39.7541 90.9548 40.262 91.7167 40.9092 92.2738C41.3269 92.626 41.8349 92.88 42.3018 93.1749C42.3919 93.052 42.4738 92.9209 42.5639 92.798C41.2532 91.4791 40.09 89.9718 38.6154 88.8741C32.9712 84.6634 29.8091 78.8963 28.3264 72.2281C26.3194 63.2416 26.7617 54.1322 27.6055 45.0391C28.0642 40.042 29.0145 35.0859 28.7442 30.0315C28.7196 29.5646 28.7278 29.0813 28.8097 28.6225C28.9899 27.6886 30.2597 26.7793 31.4393 26.5991C32.4305 26.4435 32.8647 27.0578 33.217 27.8033C33.9542 29.3598 34.6751 30.9326 35.396 32.4891C35.7237 33.1854 36.0513 33.8899 36.379 34.5862C36.6903 33.9636 36.7067 33.4721 36.5183 33.0707C35.6418 31.1538 34.757 29.2369 33.774 27.3691C33.2006 26.2796 32.5944 25.2556 33.5364 23.7319C34.0771 24.1006 34.3802 24.6494 34.7161 25.1737C36.8378 28.4341 39.6312 31.0801 42.5639 33.5704C50.207 40.0502 56.8998 47.4312 62.798 55.5002C69.2532 64.3393 71.4978 74.1532 68.9255 84.9256C68.7289 85.7366 68.6143 86.564 68.4668 87.3914C69.7529 86.1462 69.9987 84.5242 70.2772 82.9677C71.8009 74.6365 70.3509 66.7231 66.5089 59.2521Z" fill="#DAE6DA"/>
<path d="M50.9851 49.0451C49.4368 47.3821 47.9704 45.6291 46.3484 44.0398C45.0049 42.7209 44.2185 42.7209 42.5638 43.6548C42.2361 43.8432 41.9412 44.089 41.6708 44.2774C37.5175 41.7707 33.4379 43.4746 32.5696 48.0785C32.0207 51.003 31.603 53.9603 31.2999 56.9257C30.0711 68.8614 32.9055 79.6747 40.4748 89.0954C41.5971 90.488 42.6948 92.0445 44.6363 92.5524C44.0547 91.6267 43.342 90.8321 42.6047 90.0621C37.7469 84.9913 34.7077 79.003 33.397 72.1054C31.8323 63.8807 32.8318 55.6888 33.7411 47.4968C33.8557 46.4483 34.421 45.498 35.5105 45.1949C37.5011 44.6378 39.5901 43.6466 41.2776 45.883C41.3759 46.0141 41.7118 45.9567 41.9002 45.9895C42.7768 45.3014 43.6123 44.646 44.6363 43.8432C45.7996 45.0311 46.8809 46.0387 47.8557 47.1364C48.847 48.2505 49.6907 49.4957 50.6983 50.5934C54.3192 54.5583 57.3256 58.9737 59.9716 63.6103C61.5199 66.3219 63.0763 69.1399 63.9693 72.1054C65.4438 77.0369 65.6404 82.1487 64.3707 87.2277C64.2314 87.8011 64.2068 88.3991 64.1331 88.9889C64.2805 89.0299 64.428 89.0708 64.5755 89.1118C64.9031 88.1943 65.3455 87.2932 65.5257 86.3429C66.8118 79.7648 66.1565 73.4079 63.3712 67.2639C60.2911 60.4646 56.0395 54.4845 50.9851 49.0451Z" fill="#DAE6DA"/>
<path d="M48.7325 66.0023C47.815 65.4371 47.0449 64.6015 46.324 63.7905C45.8653 63.2744 45.6605 62.5454 45.2673 61.9637C44.4399 60.7267 42.9162 60.1533 41.5727 60.5711C40.2538 60.9725 40.1473 62.1194 40.0654 63.2253C39.9999 64.0854 40.0081 64.9456 40.0081 65.8057C39.9999 67.7636 40.1473 69.7297 39.9753 71.6712C39.6722 75.0872 40.2047 78.3885 41.0157 81.6735C41.1549 82.2469 41.4416 82.7958 41.7365 83.5494C41.8758 83.148 41.9905 82.9924 41.9659 82.8613C41.8758 82.2387 41.7939 81.6161 41.63 81.0181C40.5569 76.9549 40.3685 72.8098 40.5078 68.6483C40.5651 66.7724 40.819 64.8964 41.114 63.0451C41.3351 61.6115 42.2772 61.2265 43.4814 62.0047C43.8583 62.2423 44.2105 62.6355 44.3907 63.0369C45.2509 64.9947 46.7746 66.3136 48.4949 67.4523C49.9121 68.3862 50.9525 69.6068 51.6652 71.1387C53.8606 75.8736 54.7535 80.8133 54.1637 86.0152C54.0163 87.3259 53.9671 88.6448 53.8688 89.9637C56.6295 84.1311 55.8021 77.897 53.3855 71.7449C52.4516 69.3365 50.977 67.3868 48.7325 66.0023Z" fill="#DAE6DA"/>
</svg>
